<!DOCTYPE svg PUBLIC "-//W3C//DTD SVG 1.1//EN" "http://www.w3.org/Graphics/SVG/1.1/DTD/svg11.dtd">

<!-- Uploaded to: SVG Repo, www.svgrepo.com, Transformed by: SVG Repo Mixer Tools -->
<svg width="800px" height="800px" viewBox="-7.92 -7.92 39.84 39.84" fill="none" xmlns="http://www.w3.org/2000/svg" stroke="white">

<g id="SVGRepo_bgCarrier" stroke-whiteidth="0" transform="translate(0,0), scale(1)">

<rect x="-7.92" y="-7.92" width="39.84" height="39.84" rx="19.92" fill="#6366f1" strokewidth="0"/>

</g>

<g id="SVGRepo_tracerCarrier" stroke-linecap="round" stroke-linejoin="round"/>

<g id="SVGRepo_iconCarrier"> <path d="M10.5 19.9V4.1C10.5 2.6 9.86 2 8.27 2H4.23C2.64 2 2 2.6 2 4.1V19.9C2 21.4 2.64 22 4.23 22H8.27C9.86 22 10.5 21.4 10.5 19.9Z" fill="white"/> <path d="M22 12.9V4.1C22 2.6 21.36 2 19.77 2H15.73C14.14 2 13.5 2.6 13.5 4.1V12.9C13.5 14.4 14.14 15 15.73 15H19.77C21.36 15 22 14.4 22 12.9Z" fill="white"/> </g>

</svg>